<svg xmlns="http://www.w3.org/2000/svg" width="552" height="395" font-family="ui-monospace,monospace" font-size="10">
<style>text{fill:#1f2328}@media(prefers-color-scheme:dark){.bg{fill:#161b22}text{fill:#e6edf3}.cell{fill:#1f2328 !important}.dim{fill:#8b949e !important}.sep{stroke:#30363d}}</style>
<rect class="bg" width="552" height="395" fill="#fff" rx="5"/>
<text x="254.5" y="12" text-anchor="middle" font-weight="bold" font-size="10">sonnet-4-6</text>
<text x="254.5" y="22" text-anchor="middle" font-size="7" class="dim" fill="#888">N=1 runs</text>
<text x="254.5" y="33" text-anchor="middle" font-size="7" fill="#22c55e" font-weight="bold">7/10 solved (70%)</text>
<text x="254.5" y="44" text-anchor="middle" font-size="7" class="dim" fill="#888">avg 0.35</text>
<text x="446.5" y="12" text-anchor="middle" font-weight="bold" font-size="10">gemini-2.5-flash</text>
<text x="446.5" y="22" text-anchor="middle" font-size="7" class="dim" fill="#888">N=1 runs</text>
<text x="446.5" y="33" text-anchor="middle" font-size="7" fill="#22c55e" font-weight="bold">6/10 solved (60%)</text>
<text x="446.5" y="44" text-anchor="middle" font-size="7" class="dim" fill="#888">avg 0.31</text>
<line x1="350.5" y1="2" x2="350.5" y2="392" class="sep" stroke="#ccc" stroke-width="0.5"/>
<text x="190.5" y="58" text-anchor="middle" class="dim" fill="#666" font-size="8">score</text>
<text x="254.5" y="58" text-anchor="middle" class="dim" fill="#666" font-size="8">time</text>
<text x="318.5" y="58" text-anchor="middle" class="dim" fill="#666" font-size="8">tools</text>
<text x="382.5" y="58" text-anchor="middle" class="dim" fill="#666" font-size="8">score</text>
<text x="446.5" y="58" text-anchor="middle" class="dim" fill="#666" font-size="8">time</text>
<text x="510.5" y="58" text-anchor="middle" class="dim" fill="#666" font-size="8">tools</text>
<line x1="0" y1="67" x2="552" y2="67" class="sep" stroke="#ddd" stroke-width="0.5"/>
<circle cx="72.5" cy="10" r="3" fill="#22c55e" opacity="0.85"/>
<text x="78.5" y="13" font-size="7" fill="#888">easy</text>
<circle cx="110.5" cy="10" r="3" fill="#f59e0b" opacity="0.85"/>
<text x="116.5" y="13" font-size="7" fill="#888">medium</text>
<circle cx="148.5" cy="10" r="3" fill="#ef4444" opacity="0.85"/>
<text x="154.5" y="13" font-size="7" fill="#888">hard</text>
<circle cx="7" cy="86" r="4" fill="#22c55e" opacity="0.8"/>
<text x="15" y="88" font-size="9">fix-scoreboard-bypass</text>
<rect x="159.5" y="71" width="62" height="30" fill="#ffffb0" rx="2"/>
<text class="cell" x="190.5" y="84" text-anchor="middle" font-size="10">1.00</text>
<rect x="223.5" y="71" width="62" height="30" fill="#ff0050" rx="2"/>
<text class="cell" x="254.5" y="84" text-anchor="middle" font-size="10">57s</text>
<rect x="287.5" y="71" width="62" height="30" fill="#ff0050" rx="2"/>
<text class="cell" x="318.5" y="84" text-anchor="middle" font-size="10">11</text>
<rect x="351.5" y="71" width="62" height="30" fill="#ffffb0" rx="2"/>
<text class="cell" x="382.5" y="84" text-anchor="middle" font-size="10">1.00</text>
<rect x="415.5" y="71" width="62" height="30" fill="#00ff50" rx="2"/>
<text class="cell" x="446.5" y="84" text-anchor="middle" font-size="10">15s</text>
<rect x="479.5" y="71" width="62" height="30" fill="#00ff50" rx="2"/>
<text class="cell" x="510.5" y="84" text-anchor="middle" font-size="10">7</text>
<circle cx="7" cy="118" r="4" fill="#22c55e" opacity="0.8"/>
<text x="15" y="120" font-size="9">fix-timer-irq</text>
<rect x="159.5" y="103" width="62" height="30" fill="#ffffb0" rx="2"/>
<text class="cell" x="190.5" y="116" text-anchor="middle" font-size="10">1.00</text>
<rect x="223.5" y="103" width="62" height="30" fill="#ff0050" rx="2"/>
<text class="cell" x="254.5" y="116" text-anchor="middle" font-size="10">156s</text>
<rect x="287.5" y="103" width="62" height="30" fill="#ff0050" rx="2"/>
<text class="cell" x="318.5" y="116" text-anchor="middle" font-size="10">21</text>
<rect x="351.5" y="103" width="62" height="30" fill="#ffffb0" rx="2"/>
<text class="cell" x="382.5" y="116" text-anchor="middle" font-size="10">1.00</text>
<rect x="415.5" y="103" width="62" height="30" fill="#00ff50" rx="2"/>
<text class="cell" x="446.5" y="116" text-anchor="middle" font-size="10">13s</text>
<rect x="479.5" y="103" width="62" height="30" fill="#00ff50" rx="2"/>
<text class="cell" x="510.5" y="116" text-anchor="middle" font-size="10">6</text>
<circle cx="7" cy="150" r="4" fill="#22c55e" opacity="0.8"/>
<text x="15" y="152" font-size="9">fix-mem-ctrl</text>
<rect x="159.5" y="135" width="62" height="30" fill="#00ff50" rx="2"/>
<text class="cell" x="190.5" y="148" text-anchor="middle" font-size="10">0.49</text>
<rect x="223.5" y="135" width="62" height="30" fill="#ff0050" rx="2"/>
<text class="cell" x="254.5" y="148" text-anchor="middle" font-size="10">52s</text>
<rect x="287.5" y="135" width="62" height="30" fill="#00ff50" rx="2"/>
<text class="cell" x="318.5" y="148" text-anchor="middle" font-size="10">13</text>
<rect x="351.5" y="135" width="62" height="30" fill="#ffb3b3" rx="2"/>
<text class="cell" x="382.5" y="148" text-anchor="middle" font-size="10">0.08</text>
<rect x="415.5" y="135" width="62" height="30" fill="#00ff50" rx="2"/>
<text class="cell" x="446.5" y="148" text-anchor="middle" font-size="10">47s</text>
<rect x="479.5" y="135" width="62" height="30" fill="#ff0050" rx="2"/>
<text class="cell" x="510.5" y="148" text-anchor="middle" font-size="10">39</text>
<circle cx="7" cy="182" r="4" fill="#22c55e" opacity="0.8"/>
<text x="15" y="184" font-size="9">fix-cache-ctrl</text>
<rect x="159.5" y="167" width="62" height="30" fill="#ffffb0" rx="2"/>
<text class="cell" x="190.5" y="180" text-anchor="middle" font-size="10">0.25</text>
<rect x="223.5" y="167" width="62" height="30" fill="#ff0050" rx="2"/>
<text class="cell" x="254.5" y="180" text-anchor="middle" font-size="10">98s</text>
<rect x="287.5" y="167" width="62" height="30" fill="#00ff50" rx="2"/>
<text class="cell" x="318.5" y="180" text-anchor="middle" font-size="10">25</text>
<rect x="351.5" y="167" width="62" height="30" fill="#ffffb0" rx="2"/>
<text class="cell" x="382.5" y="180" text-anchor="middle" font-size="10">0.25</text>
<rect x="415.5" y="167" width="62" height="30" fill="#00ff50" rx="2"/>
<text class="cell" x="446.5" y="180" text-anchor="middle" font-size="10">88s</text>
<rect x="479.5" y="167" width="62" height="30" fill="#ff0050" rx="2"/>
<text class="cell" x="510.5" y="180" text-anchor="middle" font-size="10">55</text>
<circle cx="7" cy="214" r="4" fill="#22c55e" opacity="0.8"/>
<text x="15" y="216" font-size="9">fix-fifo-async</text>
<rect x="159.5" y="199" width="62" height="30" fill="#ffffb0" rx="2"/>
<text class="cell" x="190.5" y="212" text-anchor="middle" font-size="10">0.25</text>
<rect x="223.5" y="199" width="62" height="30" fill="#ff0050" rx="2"/>
<text class="cell" x="254.5" y="212" text-anchor="middle" font-size="10">197s</text>
<rect x="287.5" y="199" width="62" height="30" fill="#ff0050" rx="2"/>
<text class="cell" x="318.5" y="212" text-anchor="middle" font-size="10">18</text>
<rect x="351.5" y="199" width="62" height="30" fill="#ffffb0" rx="2"/>
<text class="cell" x="382.5" y="212" text-anchor="middle" font-size="10">0.25</text>
<rect x="415.5" y="199" width="62" height="30" fill="#00ff50" rx="2"/>
<text class="cell" x="446.5" y="212" text-anchor="middle" font-size="10">25s</text>
<rect x="479.5" y="199" width="62" height="30" fill="#00ff50" rx="2"/>
<text class="cell" x="510.5" y="212" text-anchor="middle" font-size="10">8</text>
<circle cx="7" cy="246" r="4" fill="#f59e0b" opacity="0.8"/>
<text x="15" y="248" font-size="9">fix-regfile-fwd</text>
<rect x="159.5" y="231" width="62" height="30" fill="#ffffb0" rx="2"/>
<text class="cell" x="190.5" y="244" text-anchor="middle" font-size="10">0.22</text>
<rect x="223.5" y="231" width="62" height="30" fill="#ff0050" rx="2"/>
<text class="cell" x="254.5" y="244" text-anchor="middle" font-size="10">116s</text>
<rect x="287.5" y="231" width="62" height="30" fill="#ffffb0" rx="2"/>
<text class="cell" x="318.5" y="244" text-anchor="middle" font-size="10">25</text>
<rect x="351.5" y="231" width="62" height="30" fill="#ffffb0" rx="2"/>
<text class="cell" x="382.5" y="244" text-anchor="middle" font-size="10">0.22</text>
<rect x="415.5" y="231" width="62" height="30" fill="#00ff50" rx="2"/>
<text class="cell" x="446.5" y="244" text-anchor="middle" font-size="10">38s</text>
<rect x="479.5" y="231" width="62" height="30" fill="#ffffb0" rx="2"/>
<text class="cell" x="510.5" y="244" text-anchor="middle" font-size="10">25</text>
<circle cx="7" cy="278" r="4" fill="#f59e0b" opacity="0.8"/>
<text x="15" y="280" font-size="9">fix-arb-lock</text>
<rect x="159.5" y="263" width="62" height="30" fill="#ffffb0" rx="2"/>
<text class="cell" x="190.5" y="276" text-anchor="middle" font-size="10">0.18</text>
<rect x="223.5" y="263" width="62" height="30" fill="#ff0050" rx="2"/>
<text class="cell" x="254.5" y="276" text-anchor="middle" font-size="10">316s</text>
<rect x="287.5" y="263" width="62" height="30" fill="#00ff50" rx="2"/>
<text class="cell" x="318.5" y="276" text-anchor="middle" font-size="10">22</text>
<rect x="351.5" y="263" width="62" height="30" fill="#ffffb0" rx="2"/>
<text class="cell" x="382.5" y="276" text-anchor="middle" font-size="10">0.18</text>
<rect x="415.5" y="263" width="62" height="30" fill="#00ff50" rx="2"/>
<text class="cell" x="446.5" y="276" text-anchor="middle" font-size="10">64s</text>
<rect x="479.5" y="263" width="62" height="30" fill="#ff0050" rx="2"/>
<text class="cell" x="510.5" y="276" text-anchor="middle" font-size="10">25</text>
<circle cx="7" cy="310" r="4" fill="#ef4444" opacity="0.8"/>
<text x="15" y="312" font-size="9">fix-dma-engine</text>
<rect x="159.5" y="295" width="62" height="30" fill="#ffb3b3" rx="2"/>
<text class="cell" x="190.5" y="308" text-anchor="middle" font-size="10">0.08</text>
<rect x="223.5" y="295" width="62" height="30" fill="#ff0050" rx="2"/>
<text class="cell" x="254.5" y="308" text-anchor="middle" font-size="10">154s</text>
<rect x="287.5" y="295" width="62" height="30" fill="#ff0050" rx="2"/>
<text class="cell" x="318.5" y="308" text-anchor="middle" font-size="10">31</text>
<rect x="351.5" y="295" width="62" height="30" fill="#ffb3b3" rx="2"/>
<text class="cell" x="382.5" y="308" text-anchor="middle" font-size="10">0.08</text>
<rect x="415.5" y="295" width="62" height="30" fill="#00ff50" rx="2"/>
<text class="cell" x="446.5" y="308" text-anchor="middle" font-size="10">67s</text>
<rect x="479.5" y="295" width="62" height="30" fill="#00ff50" rx="2"/>
<text class="cell" x="510.5" y="308" text-anchor="middle" font-size="10">25</text>
<circle cx="7" cy="342" r="4" fill="#ef4444" opacity="0.8"/>
<text x="15" y="344" font-size="9">fix-hazard-ctrl</text>
<rect x="159.5" y="327" width="62" height="30" fill="#ffb3b3" rx="2"/>
<text class="cell" x="190.5" y="340" text-anchor="middle" font-size="10">0.08</text>
<rect x="223.5" y="327" width="62" height="30" fill="#ff0050" rx="2"/>
<text class="cell" x="254.5" y="340" text-anchor="middle" font-size="10">66s</text>
<rect x="287.5" y="327" width="62" height="30" fill="#00ff50" rx="2"/>
<text class="cell" x="318.5" y="340" text-anchor="middle" font-size="10">14</text>
<rect x="351.5" y="327" width="62" height="30" fill="#ffb3b3" rx="2"/>
<text class="cell" x="382.5" y="340" text-anchor="middle" font-size="10">0.08</text>
<rect x="415.5" y="327" width="62" height="30" fill="#00ff50" rx="2"/>
<text class="cell" x="446.5" y="340" text-anchor="middle" font-size="10">51s</text>
<rect x="479.5" y="327" width="62" height="30" fill="#ff0050" rx="2"/>
<text class="cell" x="510.5" y="340" text-anchor="middle" font-size="10">25</text>
<circle cx="7" cy="374" r="4" fill="#ef4444" opacity="0.8"/>
<text x="15" y="376" font-size="9">fix-branch-pred</text>
<rect x="159.5" y="359" width="62" height="30" fill="#ffb3b3" rx="2"/>
<text class="cell" x="190.5" y="372" text-anchor="middle" font-size="10">0.00</text>
<rect x="223.5" y="359" width="62" height="30" fill="#ff0050" rx="2"/>
<text class="cell" x="254.5" y="372" text-anchor="middle" font-size="10">197s</text>
<rect x="287.5" y="359" width="62" height="30" fill="#ff0050" rx="2"/>
<text class="cell" x="318.5" y="372" text-anchor="middle" font-size="10">23</text>
<rect x="351.5" y="359" width="62" height="30" fill="#ffb3b3" rx="2"/>
<text class="cell" x="382.5" y="372" text-anchor="middle" font-size="10">0.00</text>
<rect x="415.5" y="359" width="62" height="30" fill="#00ff50" rx="2"/>
<text class="cell" x="446.5" y="372" text-anchor="middle" font-size="10">16s</text>
<rect x="479.5" y="359" width="62" height="30" fill="#00ff50" rx="2"/>
<text class="cell" x="510.5" y="372" text-anchor="middle" font-size="10">0</text>
</svg>